# generated from PmQm by Jehee Lee
:FULLY-SPECIFIED
:DEGREES
339
root 9.89697 3.69306 4.18321 -107.564 85.3387 -28.4024
RightUpLeg -7.83769 -2.26475 -1.6736
RightLeg -6.79258 -34.3927 6.64287
RightFoot 16.3424 -5.3517 20.1854
RightToes 4.07452e-010 -1.59028e-015 9.93923e-017
Spine -31.639 -0.204441 3.68282
Spine1 26.931 -0.659011 -2.53078
HEad -45.6037 17.7496 7.5831
LeftShoulder1 9.93923e-017 -0 1.22299e-017
LeftArm 7.75776 41.8133 -59.3496
LeftForeArm 9.0033 -3.54506 -6.03702
LeftHand 1.51769 12.2487 -4.63046
RightShoulder 1.98785e-016 -4.96962e-017 1.55301e-017
RightArm 9.1884 -51.1955 57.2023
RightForeArm -17.9735 12.4894 1.15059
RightHand 3.37556 -21.6272 -9.72684
LeftUpLeg -14.2686 3.3509 8.2023
LeftLeg 2.0378 24.9542 2.78697
LeftFoot 12.449 4.85229 -20.7466
LeftToes 1.53707e-010 -1.11459e-010 1.58109e-011
340
root 9.89661 3.69228 4.18949 -107.798 85.3043 -28.6095
RightUpLeg -7.78557 -2.21065 -1.62462
RightLeg -6.84602 -34.5066 6.63915
RightFoot 16.3727 -5.34971 20.1521
RightToes 4.07452e-010 -1.59028e-015 9.93923e-017
Spine -31.6053 -0.245057 3.56565
Spine1 26.9307 -0.724814 -2.38363
HEad -45.7435 17.9379 7.55909
LeftShoulder1 9.93923e-017 -0 1.22299e-017
LeftArm 7.61305 41.8116 -59.3666
LeftForeArm 9.14025 -3.51342 -6.02
LeftHand 1.5179 12.2466 -4.655
RightShoulder 1.98785e-016 -4.96962e-017 1.55301e-017
RightArm 9.17579 -51.182 57.1922
RightForeArm -17.9532 12.478 1.16186
RightHand 3.36761 -21.6067 -9.69414
LeftUpLeg -14.2454 3.39892 8.24961
LeftLeg 2.02726 24.9079 2.74904
LeftFoot 12.4649 4.85276 -20.7349
LeftToes 1.53707e-010 -1.11459e-010 1.58109e-011
341
root 9.89625 3.69234 4.19155 -107.949 85.2948 -28.7193
RightUpLeg -7.73224 -2.20359 -1.61478
RightLeg -6.86413 -34.536 6.64048
RightFoot 16.3908 -5.35018 20.1417
RightToes 4.07452e-010 -1.59028e-015 9.93923e-017
Spine -31.5614 -0.26477 3.51415
Spine1 26.934 -0.751736 -2.32581
HEad -45.876 18.0964 7.55613
LeftShoulder1 9.93923e-017 -0 1.22299e-017
LeftArm 7.50971 41.8048 -59.3778
LeftForeArm 9.24436 -3.4923 -6.00791
LeftHand 1.51905 12.2207 -4.65075
RightShoulder 1.98785e-016 -4.96962e-017 1.55301e-017
RightArm 9.1358 -51.1683 57.1984
RightForeArm -17.9167 12.4568 1.18498
RightHand 3.36524 -21.6029 -9.69074
LeftUpLeg -14.1918 3.41646 8.26972
LeftLeg 2.00067 24.9024 2.72048
LeftFoot 12.4868 4.84954 -20.7003
LeftToes 1.53707e-010 -1.11459e-010 1.58109e-011
342
root 9.89594 3.69499 4.18949 -108.202 85.3003 -28.9107
RightUpLeg -7.65715 -2.24265 -1.64217
RightLeg -6.85954 -34.5224 6.6562
RightFoot 16.3836 -5.35329 20.1572
RightToes 4.07452e-010 -1.59028e-015 9.93923e-017
Spine -31.5079 -0.287823 3.46586
Spine1 26.9366 -0.7823 -2.27308
HEad -46.0044 18.228 7.54909
LeftShoulder1 9.93923e-017 -0 1.22299e-017
LeftArm 7.46541 41.8182 -59.4053
LeftForeArm 9.25804 -3.48645 -6.00525
LeftHand 1.51977 12.2087 -4.63206
RightShoulder 1.98785e-016 -4.96962e-017 1.55301e-017
RightArm 9.19248 -51.1519 57.1847
RightForeArm -17.9989 12.4739 1.16286
RightHand 3.36777 -21.6533 -9.64108
LeftUpLeg -14.1069 3.40645 8.26566
LeftLeg 1.96808 24.915 2.70696
LeftFoot 12.4975 4.84489 -20.6755
LeftToes 1.53707e-010 -1.11459e-010 1.58109e-011
343
root 9.89576 3.69901 4.18884 -108.704 85.3008 -29.3448
RightUpLeg -7.56446 -2.28572 -1.67477
RightLeg -6.86382 -34.5377 6.68029
RightFoot 16.3688 -5.3574 20.182
RightToes 4.07452e-010 -1.59028e-015 9.93923e-017
Spine -31.4485 -0.330416 3.38294
Spine1 26.9392 -0.835825 -2.19137
HEad -46.1258 18.3406 7.56053
LeftShoulder1 9.93923e-017 -0 1.22299e-017
LeftArm 7.44376 41.8443 -59.4286
LeftForeArm 9.24843 -3.48338 -6.00466
LeftHand 1.51984 12.214 -4.616
RightShoulder 1.98785e-016 -4.96962e-017 1.55301e-017
RightArm 9.26047 -51.1381 57.1601
RightForeArm -18.0705 12.4983 1.13265
RightHand 3.3663 -21.6997 -9.56514
LeftUpLeg -14.0227 3.39858 8.25784
LeftLeg 1.94669 24.8933 2.69514
LeftFoot 12.4892 4.8341 -20.6369
LeftToes 1.53707e-010 -1.11459e-010 1.58109e-011
344
root 9.89574 3.70033 4.19253 -109.233 85.2803 -29.8282
RightUpLeg -7.48845 -2.27509 -1.66688
RightLeg -6.90352 -34.6343 6.69518
RightFoot 16.3763 -5.36046 20.1944
RightToes 4.07452e-010 -1.59028e-015 9.93923e-017
Spine -31.4069 -0.381233 3.27934
Spine1 26.9518 -0.898693 -2.09302
HEad -46.2546 18.4449 7.59776
LeftShoulder1 9.93923e-017 -0 1.22299e-017
LeftArm 7.40168 41.847 -59.4363
LeftForeArm 9.27807 -3.47301 -5.99968
LeftHand 1.51952 12.2257 -4.62448
RightShoulder 1.98785e-016 -4.96962e-017 1.55301e-017
RightArm 9.22452 -51.1168 57.1592
RightForeArm -18.0071 12.4779 1.15632
RightHand 3.37081 -21.691 -9.59868
LeftUpLeg -13.984 3.42505 8.27459
LeftLeg 1.9542 24.8314 2.67848
LeftFoot 12.4768 4.81697 -20.5748
LeftToes 1.53707e-010 -1.11459e-010 1.58109e-011
345
root 9.89596 3.70096 4.199 -109.726 85.2459 -30.2785
RightUpLeg -7.41152 -2.24611 -1.63744
RightLeg -6.95657 -34.7708 6.71184
RightFoot 16.3896 -5.36317 20.2038
RightToes 4.07452e-010 -1.59028e-015 9.93923e-017
Spine -31.3747 -0.433394 3.1663
Spine1 26.9799 -0.966813 -1.97554
HEad -46.398 18.573 7.61475
LeftShoulder1 9.93923e-017 -0 1.22299e-017
LeftArm 7.3374 41.8352 -59.4425
LeftForeArm 9.32698 -3.45712 -5.99191
LeftHand 1.5186 12.2463 -4.67626
RightShoulder 1.98785e-016 -4.96962e-017 1.55301e-017
RightArm 9.20056 -51.0874 57.1744
RightForeArm -17.9772 12.4516 1.19143
RightHand 3.37956 -21.6745 -9.69701
LeftUpLeg -13.9537 3.47958 8.31316
LeftLeg 1.96893 24.7659 2.65008
LeftFoot 12.471 4.80934 -20.5481
LeftToes 1.53707e-010 -1.11459e-010 1.58109e-011
346
root 9.89647 3.70722 4.20353 -110.448 85.2173 -30.9156
RightUpLeg -7.28043 -2.29162 -1.65174
RightLeg -6.97603 -34.8584 6.76082
RightFoot 16.3708 -5.36691 20.2266
RightToes 4.07452e-010 -1.59028e-015 9.93923e-017
Spine -31.3113 -0.496723 3.03728
Spine1 26.9981 -1.05046 -1.83339
HEad -46.5254 18.7412 7.59159
LeftShoulder1 9.93923e-017 -0 1.22299e-017
LeftArm 7.29925 41.8523 -59.453
LeftForeArm 9.33785 -3.44854 -5.98793
LeftHand 1.5176 12.2675 -4.73788
RightShoulder 1.98785e-016 -4.96962e-017 1.55301e-017
RightArm 9.301 -51.0712 57.1708
RightForeArm -18.1095 12.4819 1.16893
RightHand 3.3725 -21.7109 -9.59803
LeftUpLeg -13.8565 3.54098 8.34794
LeftLeg 1.96127 24.7044 2.5935
LeftFoot 12.4538 4.81808 -20.5968
LeftToes 1.53707e-010 -1.11459e-010 1.58109e-011
347
root 9.89738 3.71803 4.20637 -111.36 85.1956 -31.7169
RightUpLeg -7.11333 -2.39815 -1.70703
RightLeg -6.9675 -34.8992 6.83808
RightFoot 16.3382 -5.36916 20.2362
RightToes 4.07452e-010 -1.59028e-015 9.93923e-017
Spine -31.2374 -0.569893 2.90195
Spine1 27.0207 -1.14383 -1.69132
HEad -46.6294 18.9084 7.57717
LeftShoulder1 9.93923e-017 -0 1.22299e-017
LeftArm 7.32057 41.8836 -59.4649
LeftForeArm 9.285 -3.45804 -5.99235
LeftHand 1.5177 12.2658 -4.74225
RightShoulder 1.98785e-016 -4.96962e-017 1.55301e-017
RightArm 9.34429 -51.0617 57.1547
RightForeArm -18.1698 12.5087 1.13281
RightHand 3.33802 -21.7602 -9.28973
LeftUpLeg -13.7245 3.62316 8.38395
LeftLeg 1.96759 24.6233 2.51189
LeftFoot 12.4077 4.82251 -20.6547
LeftToes 1.53707e-010 -1.11459e-010 1.58109e-011
348
root 9.89988 3.72716 4.21208 -112.112 85.1583 -32.3878
RightUpLeg -6.9741 -2.45372 -1.72697
RightLeg -6.9903 -34.9938 6.91018
RightFoot 16.3414 -5.36721 20.2037
RightToes 4.07452e-010 -1.59028e-015 9.93923e-017
Spine -31.2449 -0.640397 2.77671
Spine1 27.1364 -1.23406 -1.57035
HEad -46.7656 19.028 7.60976
LeftShoulder1 9.93923e-017 -0 1.22299e-017
LeftArm 7.34682 41.8647 -59.4871
LeftForeArm 9.2213 -3.47119 -6.00196
LeftHand 1.5187 12.246 -4.69581
RightShoulder 1.98785e-016 -4.96962e-017 1.55301e-017
RightArm 9.12809 -51.0148 57.1702
RightForeArm -17.94 12.4387 1.18419
RightHand 3.31697 -21.7415 -9.16555
LeftUpLeg -13.6575 3.75054 8.45474
LeftLeg 2.04784 24.5272 2.44035
LeftFoot 12.3542 4.808 -20.6375
LeftToes 1.53707e-010 -1.11459e-010 1.58109e-011
349
root 9.90375 3.73505 4.22138 -112.717 85.0955 -32.939
RightUpLeg -6.85592 -2.43291 -1.68911
RightLeg -7.06328 -35.183 6.96772
RightFoot 16.3722 -5.36475 20.1716
RightToes 4.07452e-010 -1.59028e-015 9.93923e-017
Spine -31.3574 -0.70959 2.66076
Spine1 27.3829 -1.3239 -1.46455
HEad -46.9742 19.1229 7.65747
LeftShoulder1 9.93923e-017 -0 1.22299e-017
LeftArm 7.28598 41.7904 -59.5203
LeftForeArm 9.24308 -3.46662 -5.99914
LeftHand 1.51904 12.2395 -4.68532
RightShoulder 1.98785e-016 -4.96962e-017 1.55301e-017
RightArm 8.80486 -50.9189 57.234
RightForeArm -17.6439 12.3154 1.30235
RightHand 3.34112 -21.6679 -9.43256
LeftUpLeg -13.6459 3.89257 8.5554
LeftLeg 2.16777 24.4562 2.40385
LeftFoot 12.3334 4.7897 -20.5771
LeftToes 1.53707e-010 -1.11459e-010 1.58109e-011
